<svg version="1.0" xmlns="http://www.w3.org/2000/svg" width="48.000000pt" height="48.000000pt" viewBox="0 0 48.000000 48.000000" preserveAspectRatio="xMidYMid meet">
	<g transform="translate(0.000000,48.000000) scale(0.100000,-0.100000)" fill="#7b8ec8" stroke="none">
		<path d="M172 429 c-48 -14 -109 -80 -123 -131 -23 -89 12 -182 88 -229 57
-36 154 -34 210 3 62 41 88 90 88 168 0 77 -26 127 -85 166 -43 29 -125 39
-178 23z m148 -42 c51 -27 90 -90 90 -147 0 -87 -83 -170 -170 -170 -87 0
-170 83 -170 170 0 20 10 56 23 80 27 51 90 90 147 90 20 0 56 -10 80 -23z" />
		<path d="M160 325 c0 -11 11 -15 39 -15 22 0 43 -4 46 -10 4 -6 -12 -10 -39
-10 -34 0 -46 -4 -46 -15 0 -11 12 -15 46 -15 27 0 43 -4 39 -10 -3 -5 -21
-10 -40 -10 -19 0 -37 -5 -41 -11 -7 -12 84 -109 103 -109 22 0 15 22 -18 56
l-30 31 25 7 c14 3 30 15 36 26 6 11 17 20 25 20 23 0 17 27 -7 35 l-23 8 23
4 c12 2 22 11 22 19 0 11 -17 14 -80 14 -64 0 -80 -3 -80 -15z" />
	</g>
</svg>
